<svg xmlns="http://www.w3.org/2000/svg" viewBox="0 0 500 500"><g id="freepik--background-complete--inject-191"><rect y="382.4" width="500" height="0.25" style="fill:#ebebeb"></rect><rect x="416.78" y="398.49" width="33.12" height="0.25" style="fill:#ebebeb"></rect><rect x="322.53" y="401.21" width="8.69" height="0.25" style="fill:#ebebeb"></rect><rect x="396.59" y="389.21" width="19.19" height="0.25" style="fill:#ebebeb"></rect><rect x="52.46" y="390.89" width="43.19" height="0.25" style="fill:#ebebeb"></rect><rect x="104.56" y="390.89" width="6.33" height="0.25" style="fill:#ebebeb"></rect><rect x="131.47" y="395.11" width="93.68" height="0.25" style="fill:#ebebeb"></rect><path d="M237,337.8H43.91a5.71,5.71,0,0,1-5.7-5.71V60.66A5.71,5.71,0,0,1,43.91,55H237a5.71,5.71,0,0,1,5.71,5.71V332.09A5.71,5.71,0,0,1,237,337.8ZM43.91,55.2a5.46,5.46,0,0,0-5.45,5.46V332.09a5.46,5.46,0,0,0,5.45,5.46H237a5.47,5.47,0,0,0,5.46-5.46V60.66A5.47,5.47,0,0,0,237,55.2Z" style="fill:#ebebeb"></path><path d="M453.31,337.8H260.21a5.72,5.72,0,0,1-5.71-5.71V60.66A5.72,5.72,0,0,1,260.21,55h193.1A5.71,5.71,0,0,1,459,60.66V332.09A5.71,5.71,0,0,1,453.31,337.8ZM260.21,55.2a5.47,5.47,0,0,0-5.46,5.46V332.09a5.47,5.47,0,0,0,5.46,5.46h193.1a5.47,5.47,0,0,0,5.46-5.46V60.66a5.47,5.47,0,0,0-5.46-5.46Z" style="fill:#ebebeb"></path><rect x="69.11" y="90.75" width="143.13" height="147.9" style="fill:#ebebeb"></rect><rect x="74.11" y="90.75" width="143.13" height="147.9" style="fill:#f0f0f0"></rect><rect x="77.71" y="94.25" width="135.73" height="140.95" style="fill:#e0e0e0"></rect><rect x="77.71" y="94.25" width="132.34" height="140.95" style="fill:#f5f5f5"></rect><rect x="142.56" y="94.25" width="2.69" height="140.95" style="fill:#ebebeb"></rect><polygon points="127.09 94.25 89.37 235.2 85.75 235.2 123.47 94.25 127.09 94.25" style="fill:#fff"></polygon><rect x="144.1" y="92.08" width="2.3" height="145.83" style="fill:#f0f0f0"></rect><polygon points="113.4 94.25 77.71 227.64 77.71 154.32 93.78 94.25 113.4 94.25" style="fill:#fff"></polygon><polygon points="210.05 107.04 210.05 120.57 179.37 235.2 175.75 235.2 210.05 107.04" style="fill:#fff"></polygon><polygon points="210.05 134.36 210.05 207.68 202.69 235.2 183.07 235.2 210.05 134.36" style="fill:#fff"></polygon><path d="M187.3,376.57h23.17l-12.18-99.21a8.85,8.85,0,0,0-8.54-7.6H88.65l14.82,106.81Z" style="fill:#f5f5f5"></path><path d="M113.81,376.57H90.64L78.46,277.36a6.58,6.58,0,0,1,6.67-7.6h8a8.84,8.84,0,0,1,8.54,7.6Z" style="fill:#f0f0f0"></path><path d="M122.35,376.45l-4.2-48a4.57,4.57,0,0,0-4-4.14l-1.72-.22a6.14,6.14,0,0,1-5.34-5.55l-.76-8.75a6.13,6.13,0,0,1,6.11-6.67H73.73a6.14,6.14,0,0,0-6.11,6.67l.77,8.75a6.14,6.14,0,0,0,5.33,5.55l1.73.22a4.58,4.58,0,0,1,4,4.14l4.2,48a6.76,6.76,0,0,0,6.74,6.18H129.1A6.76,6.76,0,0,1,122.35,376.45Z" style="fill:#e6e6e6"></path><path d="M228.91,316.45a14.59,14.59,0,0,1,14.53-13.31H209.73a14.59,14.59,0,0,0-14.53,13.31l-3.33,38h33.71Z" style="fill:#e6e6e6"></path><path d="M258.42,303.14h-15a14.59,14.59,0,0,0-14.53,13.31l-3.33,38H145.29l-3.32-38a14.59,14.59,0,0,0-14.54-13.31h-15a6.13,6.13,0,0,0-6.11,6.67l.76,8.75a6.14,6.14,0,0,0,5.34,5.55l1.72.22a4.57,4.57,0,0,1,4,4.14l4.2,48a6.76,6.76,0,0,0,6.75,6.18H241.78a6.78,6.78,0,0,0,6.75-6.18l4.2-48a4.56,4.56,0,0,1,4-4.14l1.73-.22a6.16,6.16,0,0,0,5.34-5.55l.76-8.75A6.13,6.13,0,0,0,258.42,303.14Z" style="fill:#f0f0f0"></path><rect x="281.02" y="191.83" width="150.67" height="190.8" style="fill:#f0f0f0"></rect><rect x="286.35" y="198.79" width="140.02" height="40.8" style="fill:#e0e0e0"></rect><rect x="286.35" y="205.39" width="7.95" height="34.19" style="fill:#ebebeb"></rect><rect x="324.81" y="205.39" width="7.95" height="34.19" style="fill:#ebebeb"></rect><rect x="371.44" y="204.97" width="7.95" height="34.19" transform="translate(-32.26 66.99) rotate(-9.78)" style="fill:#ebebeb"></rect><rect x="296.21" y="209.9" width="7.95" height="29.69" style="fill:#ebebeb"></rect><rect x="314.49" y="209.9" width="7.95" height="29.69" style="fill:#ebebeb"></rect><rect x="360.64" y="209.9" width="7.95" height="29.69" style="fill:#ebebeb"></rect><rect x="338.57" y="209.39" width="7.95" height="29.69" transform="translate(-40.48 79.64) rotate(-12.53)" style="fill:#ebebeb"></rect><rect x="307.06" y="203.7" width="3.98" height="35.89" style="fill:#ebebeb"></rect><rect x="354.37" y="203.7" width="3.98" height="35.89" style="fill:#ebebeb"></rect><rect x="286.35" y="246.05" width="140.02" height="40.8" transform="translate(712.72 532.9) rotate(180)" style="fill:#e0e0e0"></rect><rect x="418.42" y="252.65" width="7.95" height="34.19" transform="translate(844.79 539.5) rotate(180)" style="fill:#ebebeb"></rect><rect x="379.96" y="252.65" width="7.95" height="34.19" transform="translate(767.87 539.5) rotate(180)" style="fill:#ebebeb"></rect><rect x="333.33" y="252.23" width="7.95" height="34.19" transform="translate(623.98 592.02) rotate(-170.22)" style="fill:#ebebeb"></rect><rect x="408.56" y="257.16" width="7.95" height="29.69" transform="translate(825.08 544.01) rotate(180)" style="fill:#ebebeb"></rect><rect x="390.28" y="257.16" width="7.95" height="29.69" transform="translate(788.51 544.01) rotate(180)" style="fill:#ebebeb"></rect><rect x="344.13" y="257.16" width="7.95" height="29.69" transform="translate(696.22 544.01) rotate(180)" style="fill:#ebebeb"></rect><rect x="366.19" y="256.65" width="7.95" height="29.69" transform="translate(672.64 616.82) rotate(-167.47)" style="fill:#ebebeb"></rect><rect x="401.68" y="250.96" width="3.98" height="35.89" transform="translate(807.35 537.8) rotate(180)" style="fill:#ebebeb"></rect><rect x="354.37" y="250.96" width="3.98" height="35.89" transform="translate(712.72 537.8) rotate(180)" style="fill:#ebebeb"></rect><rect x="286.35" y="252.65" width="7.95" height="34.19" style="fill:#ebebeb"></rect><rect x="296.21" y="257.16" width="7.95" height="29.69" style="fill:#ebebeb"></rect><rect x="314.49" y="257.16" width="7.95" height="29.69" style="fill:#ebebeb"></rect><rect x="307.06" y="250.96" width="3.98" height="35.89" style="fill:#ebebeb"></rect><rect x="286.35" y="293.31" width="140.02" height="40.8" style="fill:#e0e0e0"></rect><rect x="366.72" y="299.91" width="7.95" height="34.19" style="fill:#ebebeb"></rect><rect x="413.34" y="299.49" width="7.95" height="34.19" transform="translate(-47.7 75.48) rotate(-9.78)" style="fill:#ebebeb"></rect><rect x="338.11" y="304.42" width="7.95" height="29.69" style="fill:#ebebeb"></rect><rect x="356.4" y="304.42" width="7.95" height="29.69" style="fill:#ebebeb"></rect><rect x="402.54" y="304.42" width="7.95" height="29.69" style="fill:#ebebeb"></rect><rect x="380.48" y="303.91" width="7.95" height="29.69" transform="translate(-59.99 90.98) rotate(-12.53)" style="fill:#ebebeb"></rect><rect x="348.97" y="298.22" width="3.98" height="35.89" style="fill:#ebebeb"></rect><rect x="396.28" y="298.22" width="3.98" height="35.89" style="fill:#ebebeb"></rect><rect x="321.83" y="299.49" width="7.95" height="34.19" transform="translate(-49.03 59.93) rotate(-9.78)" style="fill:#ebebeb"></rect><rect x="311.03" y="304.42" width="7.95" height="29.69" style="fill:#ebebeb"></rect><rect x="288.97" y="303.91" width="7.95" height="29.69" transform="translate(-62.17 71.13) rotate(-12.53)" style="fill:#ebebeb"></rect><rect x="304.77" y="298.22" width="3.98" height="35.89" style="fill:#ebebeb"></rect><path d="M304.16,191.83V189h4.59a53.67,53.67,0,0,1-1.69-26.88s-.06,11.73,4.47,11.82c6.94.13,7.46-11.82,7.46-11.82s1.67,17.1-4.55,26.88h4.75v2.83Z" style="fill:#e0e0e0"></path><path d="M317.05,170a4,4,0,1,1-4-4A4,4,0,0,1,317.05,170Z" style="fill:#e0e0e0"></path><path d="M334.93,191.83v-1.65l4.84-2.25-2.42-2.37,6-21.3v13.3s-.83,0-.83,1.92,2.75,1.46,2.75-.12-.9-1.8-.9-1.8V163.7l5.52,21.07-2.48,3.16,5,2.25v1.65Z" style="fill:#e0e0e0"></path><polygon points="364.61 191.83 364.61 190.52 369.08 189.51 369.08 169.95 372.91 164.6 376.18 168.79 376.18 177.76 377.87 175.42 380.24 174.52 381.93 178.22 378.32 189.51 381.93 190.52 381.93 191.83 364.61 191.83" style="fill:#e0e0e0"></polygon><polygon points="394.26 192.43 399.74 164.6 416.52 164.6 412.54 180.38 418.42 191.83 394.26 192.43" style="fill:#e0e0e0"></polygon></g><g id="freepik--Shadow--inject-191"><ellipse id="freepik--path--inject-191" cx="250" cy="416.24" rx="193.89" ry="11.32" style="fill:#f5f5f5"></ellipse></g><g id="freepik--tool-2--inject-191"><path d="M398.34,295.18v92h-154v-92a2.8,2.8,0,0,1,2.8-2.8H395.54A2.8,2.8,0,0,1,398.34,295.18Z" style="fill:#895824"></path><rect x="244.35" y="298.87" width="153.99" height="88.34" style="fill:#fff;opacity:0.4;isolation:isolate"></rect><path d="M266.64,307.66v-6.34a1,1,0,0,0-1-1H247.51a1,1,0,0,0-1,1v6.34h-2.11v76.55h154V307.66ZM381.78,381.4h-10.6v-6.33h10.6Z" style="fill:#fff;opacity:0.4"></path><rect x="247.52" y="319.05" width="141.63" height="53.38" style="fill:#fff"></rect><rect x="390.92" y="319.05" width="3.16" height="53.38" style="fill:#895824"></rect><path d="M392.51,347.54h0a1.59,1.59,0,0,1-1.59-1.58V332.34a1.59,1.59,0,0,1,1.59-1.58h0a1.58,1.58,0,0,1,1.58,1.58V346A1.58,1.58,0,0,1,392.51,347.54Z" style="fill:#fff;opacity:0.4"></path><rect x="247.52" y="375.07" width="67.04" height="6.33" style="fill:#895824"></rect><rect x="308.23" y="375.07" width="6.33" height="6.33" style="fill:#fff;opacity:0.4"></rect><polygon points="309.88 377.22 311.39 379.24 312.91 377.22 309.88 377.22" style="fill:#fff"></polygon><rect x="262.5" y="310.08" width="50.04" height="6.33" style="fill:#895824"></rect><rect x="306.22" y="310.08" width="6.33" height="6.33" style="fill:#fff;opacity:0.4"></rect><polygon points="307.87 312.24 309.38 314.25 310.89 312.24 307.87 312.24" style="fill:#fff"></polygon><rect x="317.79" y="375.07" width="50.04" height="6.33" style="fill:#895824"></rect><rect x="361.51" y="375.07" width="6.33" height="6.33" style="fill:#fff;opacity:0.4"></rect><polygon points="363.16 377.22 364.67 379.24 366.18 377.22 363.16 377.22" style="fill:#fff"></polygon><rect x="390.92" y="300.78" width="5.34" height="1" style="fill:#895824"></rect><rect x="390.92" y="302.78" width="5.34" height="1" style="fill:#895824"></rect><rect x="390.92" y="304.78" width="5.34" height="1" style="fill:#895824"></rect><rect x="247.02" y="319.05" width="1" height="53.38" style="fill:#895824"></rect><rect x="262.75" y="319.05" width="1" height="53.38" style="fill:#895824"></rect><rect x="278.49" y="319.05" width="1" height="53.38" style="fill:#895824"></rect><rect x="294.23" y="319.05" width="1" height="53.38" style="fill:#895824"></rect><rect x="309.96" y="319.05" width="1" height="53.38" style="fill:#895824"></rect><rect x="325.7" y="319.05" width="1" height="53.38" style="fill:#895824"></rect><rect x="341.43" y="319.05" width="1" height="53.38" style="fill:#895824"></rect><rect x="357.17" y="319.05" width="1" height="53.38" style="fill:#895824"></rect><rect x="372.91" y="319.05" width="1" height="53.38" style="fill:#895824"></rect><rect x="388.64" y="319.05" width="1" height="53.38" style="fill:#895824"></rect><rect x="246.99" y="318.55" width="142.16" height="1" style="fill:#895824"></rect><rect x="246.99" y="334.28" width="142.16" height="1" style="fill:#895824"></rect><rect x="246.99" y="350.02" width="142.16" height="1" style="fill:#895824"></rect><rect x="246.99" y="365.76" width="142.16" height="1" style="fill:#895824"></rect><g style="opacity:0.8"><rect x="247.02" y="319.05" width="1" height="53.38" style="fill:#fff"></rect><rect x="262.75" y="319.05" width="1" height="53.38" style="fill:#fff"></rect><rect x="278.49" y="319.05" width="1" height="53.38" style="fill:#fff"></rect><rect x="294.23" y="319.05" width="1" height="53.38" style="fill:#fff"></rect><rect x="309.96" y="319.05" width="1" height="53.38" style="fill:#fff"></rect><rect x="325.7" y="319.05" width="1" height="53.38" style="fill:#fff"></rect><rect x="341.43" y="319.05" width="1" height="53.38" style="fill:#fff"></rect><rect x="357.17" y="319.05" width="1" height="53.38" style="fill:#fff"></rect><rect x="372.91" y="319.05" width="1" height="53.38" style="fill:#fff"></rect><rect x="388.64" y="319.05" width="1" height="53.38" style="fill:#fff"></rect><rect x="246.99" y="318.55" width="142.16" height="1" style="fill:#fff"></rect><rect x="246.99" y="334.28" width="142.16" height="1" style="fill:#fff"></rect><rect x="246.99" y="350.02" width="142.16" height="1" style="fill:#fff"></rect><rect x="246.99" y="365.76" width="142.16" height="1" style="fill:#fff"></rect></g><g style="opacity:0.6000000000000001"><path d="M257.62,329.8H253L251.54,332h-.95l5.46-8.31h.87l2.14,8.31h-.88Zm-.17-.72-1.12-4.48-2.9,4.48Z"></path><path d="M273.33,329.8h-4.64L267.25,332h-.95l5.46-8.31h.87l2.13,8.31h-.87Zm-.17-.72L272,324.6l-2.89,4.48ZM272.4,323h-.88l1.81-1.47h1.15Z"></path><path d="M289,329.8h-4.65L283,332H282l5.46-8.31h.87l2.13,8.31h-.88Zm-.17-.72-1.13-4.48-2.89,4.48Zm-2.36-7.52h.58c0,.63.41,1,1.12,1a1.22,1.22,0,0,0,1.3-1h.62a1.87,1.87,0,0,1-2,1.53C287.17,323.09,286.44,322.5,286.51,321.56Z"></path><path d="M304.74,329.79H300.1L298.67,332h-.95l5.46-8.3H304l2.14,8.3h-.88Zm-.16-.71-1.13-4.49-2.9,4.49Zm-2.43-7.17h.56c.06.44.48.69,1.17.69s1.16-.25,1.3-.69h.6a1.8,1.8,0,0,1-1.93,1.18C302.86,323.09,302.19,322.64,302.15,321.91Zm1.89-.22h-.78l1.59-1.3h1.06Z"></path><path d="M320.45,329.79h-4.64L314.37,332h-.95l5.47-8.3h.86l2.14,8.3H321Zm-.16-.71-1.13-4.49-2.9,4.49Zm-2.44-7.17h.57c.06.44.48.69,1.17.69s1.16-.25,1.3-.69h.6a1.8,1.8,0,0,1-1.93,1.18C318.57,323.09,317.9,322.64,317.85,321.91Zm1.86-.22-1.47-1.3h1l1.17,1.3Z"></path><path d="M336.16,329.79h-4.64L330.08,332h-.95l5.46-8.3h.87l2.14,8.3h-.88Zm-.16-.71-1.13-4.49-2.9,4.49Zm-2.44-7.17h.57c.06.44.48.69,1.16.69s1.17-.25,1.31-.69h.59a1.78,1.78,0,0,1-1.92,1.18C334.27,323.09,333.61,322.64,333.56,321.91Zm1.2-1.05-.13-.37a1.58,1.58,0,0,1,.77-.2.7.7,0,0,1,.79.68,1.15,1.15,0,0,1-.82,1l-.23-.3c.39-.17.57-.39.57-.64s-.15-.35-.4-.35A1.14,1.14,0,0,0,334.76,320.86Z"></path><path d="M351.87,329.79h-4.64L345.79,332h-1l5.46-8.3h.87l2.14,8.3h-.88Zm-.17-.71-1.12-4.49-2.9,4.49Zm-2.43-7.17h.57c.06.44.47.69,1.16.69s1.17-.25,1.31-.69h.59a1.78,1.78,0,0,1-1.92,1.18C350,323.09,349.32,322.64,349.27,321.91Zm.59-.37h-.51a1.2,1.2,0,0,1,1.2-1.09c.7,0,1,.64,1.45.64a.68.68,0,0,0,.7-.58h.5a1.19,1.19,0,0,1-1.2,1.08c-.71,0-1-.64-1.45-.64A.67.67,0,0,0,349.86,321.54Z"></path><path d="M367.58,329.79h-4.64L361.5,332h-.95l5.46-8.3h.87L369,332h-.87Zm-.17-.71-1.13-4.49-2.89,4.49ZM366.24,323l-1.36-1.47h.76l1.07,1,1.27-1h.82L367.09,323Z"></path><path d="M383.29,329.79h-4.65L377.21,332h-.95l5.46-8.3h.87l2.13,8.3h-.88Zm-.17-.71L382,324.59l-2.89,4.49Zm-2-6.05h-.81l1.7-1.47h.85l1.37,1.47h-.76l-1.07-1Z"></path><path d="M256.92,339.23l2.14,8.31h-.88l-.56-2.22H253l-1.44,2.22h-.95l5.46-8.31Zm.53,5.38-1.12-4.49-2.9,4.49Zm-1.95-6.06h-.84l1.7-1.11h.83l1.39,1.11h-.79l-1.05-.7Zm2.95-1h-.78l1.59-1.3h1.05Z"></path><path d="M273.89,347.54l-.56-2.22h-4.64l-1.44,2.22h-.95l5.46-8.31h.87l2.13,8.31Zm-.73-2.93L272,340.12l-2.89,4.49Zm-2.47,4.6a.57.57,0,0,1-.58.59.43.43,0,0,1-.44-.46.59.59,0,0,1,.58-.57A.43.43,0,0,1,270.69,349.21Zm.49-10.66h-.81l1.7-1.47h.85l1.37,1.47h-.76l-1.07-1Z"></path><path d="M288.34,339.23l2.13,8.31h-.88l-.55-2.22h-4.65L283,347.54H282l5.46-8.31Zm.53,5.38-1.13-4.49-2.89,4.49Zm-2-6.06h-.83l1.7-1.11h.83l1.39,1.11h-.8l-1-.7Zm2.91-1-1.46-1.3h1l1.18,1.3Z"></path><path d="M304,339.23l2.14,8.31h-.88l-.56-2.22H300.1l-1.43,2.22h-.95l5.46-8.31Zm.54,5.38-1.13-4.49-2.9,4.49Zm-2-6.06h-.83l1.7-1.11h.83l1.39,1.11h-.8l-1-.7Zm2.15-1.93-.13-.37a1.55,1.55,0,0,1,.77-.2.69.69,0,0,1,.78.69,1.15,1.15,0,0,1-.82,1l-.22-.3c.39-.17.57-.39.57-.64s-.16-.34-.41-.34A1.12,1.12,0,0,0,304.77,336.62Z"></path><path d="M320.45,345.32h-4.64l-1.44,2.22h-.95l5.47-8.31h.86l2.14,8.31H321Zm-.16-.71-1.13-4.49-2.9,4.49Zm-2-6.06h-.83l1.69-1.11H320l1.38,1.11h-.79l-1.05-.7Zm.13-1.54H318a1.19,1.19,0,0,1,1.2-1.09c.7,0,1,.64,1.45.64a.7.7,0,0,0,.7-.58h.49a1.19,1.19,0,0,1-1.19,1.08c-.72,0-1-.64-1.45-.64A.67.67,0,0,0,318.46,337Z"></path><path d="M336.16,345.32h-4.64l-1.44,2.22h-.95l5.46-8.31h.87l2.14,8.31h-.88Zm-.16-.71-1.13-4.49-2.9,4.49Zm-2.17-6.06-1.05-1.47h.92l.86,1.47Zm1.94,0-1.06-1.47h.92l.85,1.47Z"></path><path d="M351.87,345.32h-4.64l-1.44,2.22h-1l5.46-8.31h.87l2.14,8.31h-.88Zm-.17-.71-1.12-4.49-2.9,4.49Zm-2.25-6.78a.55.55,0,0,1,.53-.57.47.47,0,0,1,.49.47.54.54,0,0,1-.54.55A.46.46,0,0,1,349.45,337.83Zm2.12,0a.55.55,0,0,1,.54-.57.47.47,0,0,1,.48.47.54.54,0,0,1-.54.55A.46.46,0,0,1,351.57,337.83Z"></path><path d="M367.58,345.32h-4.64l-1.44,2.22h-.95l5.46-8.31h.87l2.13,8.31h-.87Zm-.17-.71-1.13-4.49-2.89,4.49Zm-.9-6.06-1.63-1.47H366l1.35,1.47Z"></path><path d="M383.29,345.32h-4.65l-1.43,2.22h-.95l5.46-8.31h.87l2.13,8.31h-.88Zm-.17-.71L382,340.12l-2.89,4.49Zm-1.38-7.54-.19-.43a1.93,1.93,0,0,1,1-.3.91.91,0,0,1,1,.91c0,.6-.35,1.07-1.12,1.41l-.23-.39c.52-.23.79-.52.79-.92a.52.52,0,0,0-.59-.51A1.33,1.33,0,0,0,381.74,337.07Z"></path><path d="M257.62,360.85H253l-1.44,2.22h-.95l5.46-8.31h.87l2.14,8.31h-.88Zm-.17-.72-1.12-4.48-2.9,4.48Zm-2-6.05h-.6a1.86,1.86,0,0,1,2-1.53,1.47,1.47,0,0,1,1.65,1.53h-.58c0-.62-.43-1-1.12-1A1.25,1.25,0,0,0,255.41,354.08Z"></path><path d="M273.33,360.85h-4.64l-1.44,2.22h-.95l5.46-8.31h.87l2.13,8.31h-.87Zm-.17-.72L272,355.65l-2.89,4.48Zm1.08-6.5h-3.65l.1-.56h3.67Z"></path><path d="M290.16,364.93l.13.46a2,2,0,0,1-1.05.29c-.68,0-1.15-.36-1.15-1s.48-1.24,1.48-1.74l-.53-2.12h-4.65L283,363.06H282l5.46-8.31h.87l2.13,8.31c-1.15.46-1.74,1-1.74,1.55,0,.35.23.54.63.54A1.55,1.55,0,0,0,290.16,364.93Zm-1.29-4.8-1.13-4.49-2.89,4.49Z"></path><path d="M304.74,360.84H300.1l-1.43,2.22h-.95l5.46-8.31H304l2.14,8.31h-.88Zm-.16-.71-1.13-4.49-2.9,4.49Zm-1.79-7.41a1.22,1.22,0,0,1,1.23-1.24,1.24,1.24,0,0,1,1.24,1.24,1.24,1.24,0,0,1-2.47,0Zm.42,0a.81.81,0,0,0,1.62,0,.81.81,0,1,0-1.62,0Z"></path><path d="M320.45,360.84h-4.64l-1.44,2.22h-.95l5.47-8.31h.86l2.14,8.31H321Zm-.16-.71-1.13-4.49-2.9,4.49Zm-1.8-7.41a1.23,1.23,0,0,1,1.24-1.24,1.29,1.29,0,0,1,.65.18l1-1,.47.38-1.09.92a1.24,1.24,0,0,1,.23.73,1.24,1.24,0,0,1-2.47,0Zm.43,0a.81.81,0,0,0,1.62,0,.81.81,0,1,0-1.62,0Z"></path><path d="M336.16,360.84h-4.64l-1.44,2.22h-.95l5.46-8.31h.87l2.14,8.31h-.88Zm-.16-.71-1.13-4.49-2.9,4.49ZM333.85,354h-.51c.13-.82.58-1.31,1.2-1.31s1,.81,1.54.81c.35,0,.62-.3.69-.74h.51c-.13.8-.57,1.29-1.2,1.29s-1-.81-1.56-.81C334.17,353.2,333.92,353.51,333.85,354Z"></path><path d="M352.94,356.82l-1.25,6.24h-.81l.21-1a3.23,3.23,0,0,1-2.44,1,2.51,2.51,0,0,1-2.72-2.64,3.52,3.52,0,0,1,3.53-3.71,2.33,2.33,0,0,1,2.37,1.36l.26-1.31Zm-1.4,2.64a1.83,1.83,0,0,0-2.06-1.95,2.74,2.74,0,0,0-2.7,2.93,1.82,1.82,0,0,0,2.05,1.94A2.74,2.74,0,0,0,351.54,359.46Z"></path><path d="M368.65,356.82l-1.25,6.24h-.81l.2-1a3.19,3.19,0,0,1-2.43,1,2.51,2.51,0,0,1-2.72-2.64,3.52,3.52,0,0,1,3.53-3.71,2.34,2.34,0,0,1,2.37,1.36l.26-1.31Zm-1.4,2.64a1.83,1.83,0,0,0-2.06-1.95,2.74,2.74,0,0,0-2.71,2.93,1.83,1.83,0,0,0,2.06,1.94A2.74,2.74,0,0,0,367.25,359.46Zm-1.31-3.6h-.88l1.81-1.47H368Z"></path><path d="M384.35,356.82l-1.24,6.24h-.81l.2-1a3.19,3.19,0,0,1-2.43,1,2.51,2.51,0,0,1-2.72-2.64,3.52,3.52,0,0,1,3.53-3.71,2.36,2.36,0,0,1,2.37,1.35l.26-1.3Zm-1.4,2.64a1.82,1.82,0,0,0-2.05-1.95,2.74,2.74,0,0,0-2.71,2.93,1.83,1.83,0,0,0,2.06,1.94A2.73,2.73,0,0,0,383,359.46ZM380,354.39h.59c0,.62.41,1,1.11,1a1.24,1.24,0,0,0,1.31-1h.62a1.89,1.89,0,0,1-2,1.53A1.47,1.47,0,0,1,380,354.39Z"></path></g></g><g id="freepik--tool-1--inject-191"><path d="M370.75,142.09V107.27a2.8,2.8,0,0,0-2.8-2.8H244.56a2.8,2.8,0,0,0-2.8,2.8v34.82Z" style="fill:#895824"></path><rect x="241.76" y="110.96" width="128.99" height="31.13" style="fill:#fff;opacity:0.4;isolation:isolate"></rect><path d="M370.75,138.09V119.75H265.05v-6.34a1,1,0,0,0-1-1H245.92a1,1,0,0,0-1,1v6.34h-3.11v18.34Z" style="fill:#fff;opacity:0.4"></path><rect x="244.91" y="123.17" width="85.04" height="10.76" style="fill:#895824"></rect><rect x="319.2" y="123.17" width="10.76" height="10.76" style="fill:#fff;opacity:0.4"></rect><polygon points="322.01 126.84 324.57 130.26 327.14 126.84 322.01 126.84" style="fill:#fff"></polygon><rect x="363.33" y="112.87" width="5.34" height="1" style="fill:#895824"></rect><rect x="363.33" y="114.87" width="5.34" height="1" style="fill:#895824"></rect><rect x="363.33" y="116.87" width="5.34" height="1" style="fill:#895824"></rect><rect x="332.47" y="123.17" width="10.76" height="10.76" style="fill:#fff;opacity:0.4"></rect><path d="M340.93,129.94c0,1.06-.83,1.68-2.43,1.68h-3.08v-6.2h2.91c1.49,0,2.28.63,2.28,1.61a1.48,1.48,0,0,1-.79,1.36A1.54,1.54,0,0,1,340.93,129.94Zm-4.36-3.62V128h1.63c.8,0,1.25-.28,1.25-.85s-.45-.86-1.25-.86Zm3.2,3.5c0-.62-.47-.89-1.34-.89h-1.86v1.79h1.86C339.3,130.72,339.77,130.44,339.77,129.82Z"></path><rect x="345.29" y="123.17" width="10.76" height="10.76" style="fill:#895824"></rect><path d="M351.12,125.42h.65l-1.24,6.2h-.65Z" style="fill:#fff"></path><rect x="358.11" y="123.17" width="10.76" height="10.76" style="fill:#fff;opacity:0.4"></rect><path d="M360.94,129v-3.55h.65v3.52c0,1.48.69,2.15,1.9,2.15s1.91-.67,1.91-2.15v-3.52H366V129a2.55,2.55,0,1,1-5.09,0Z"></path><rect x="360.03" y="131.88" width="6.93" height="0.5"></rect></g><g id="freepik--Font--inject-191"><path d="M259.28,228.73H214.84L201.08,250H192l52.29-79.58h8.3L273,250h-8.41Zm-1.59-6.82-10.8-43-27.73,43Z" style="fill:#263238"></path><path d="M350.45,190.19,338.51,250h-7.73l1.94-9.44a30.65,30.65,0,0,1-23.31,10c-15.34,0-26-9.55-26-25.35,0-20.47,14.32-35.47,33.76-35.47,11.37,0,19.33,4.66,22.74,13l2.5-12.51ZM337,215.43c0-11.71-7.17-18.64-19.67-18.64-14.89,0-25.92,11.82-25.92,28.08,0,11.7,7.16,18.52,19.67,18.52C326,243.39,337,231.69,337,215.43Z" style="fill:#263238"></path><rect x="198.46" y="249.49" width="157.26" height="1" style="fill:#895824"></rect><rect x="197.43" y="248.95" width="2.07" height="2.07" style="fill:#895824"></rect><path d="M356.1,281.49H191.25V153H356.1Zm-163.85-1H355.1V154H192.25Z" style="fill:#895824"></path><rect x="190.76" y="280" width="1.98" height="1.98" style="fill:#fff"></rect><path d="M193.24,282.48h-3v-3h3Zm-2-1h1v-1h-1Z" style="fill:#895824"></path><rect x="190.76" y="152.49" width="1.98" height="1.98" style="fill:#fff"></rect><path d="M193.24,155h-3v-3h3Zm-2-1h1v-1h-1Z" style="fill:#895824"></path><rect x="354.62" y="152.49" width="1.98" height="1.98" style="fill:#fff"></rect><path d="M357.09,155h-3v-3h3Zm-2-1h1v-1h-1Z" style="fill:#895824"></path><rect x="354.62" y="280" width="1.98" height="1.98" style="fill:#fff"></rect><path d="M357.09,282.48h-3v-3h3Zm-2-1h1v-1h-1Z" style="fill:#895824"></path></g><g id="freepik--Character--inject-191"><path d="M177.74,410.86l5.16-1.4c-1.89-26-7-57.35-11.32-80.87-.68-3.68-1.34-7.17-2-10.41-.3-1.55-.59-3-.87-4.45-1.38-7.05-2.54-12.62-3.26-16.06-.53-2.51-.83-3.89-.83-3.89l-18.53,5.37,1.55,4.67,5.09,15.42.58,1.76,3.37,10.17,5.72,17.33C163.23,375,177.74,410.86,177.74,410.86Z" style="fill:#eec1bb"></path><path d="M132.8,409.6l5.33-.51c2.78-28.18,2.89-63.27,2.51-87.66-.07-3.77-.14-7.3-.21-10.5,0-.17,0-.32,0-.47-.16-6.35-.32-11.4-.44-14.59-.1-2.5-.16-3.87-.16-3.87l-19.17,2.14,1.19,8,1.75,11.72.34,2.3,1.2,8,3.2,21.43C124.6,371.8,132.8,409.6,132.8,409.6Z" style="fill:#eec1bb"></path><path d="M123.59,313.84l16.84-2.91c0-.17,0-.32,0-.47-.16-6.35-.32-11.4-.44-14.59l-18.14,6.25Z" style="opacity:0.2;isolation:isolate"></path><path d="M167.34,306.68l-17.73,3-1.94-5.87,17.81-6.15C165.94,299.86,166.58,302.92,167.34,306.68Z" style="opacity:0.2;isolation:isolate"></path><path d="M114.74,166c.07-.52.06-1.09.12-1.71a4,4,0,0,1,2.29-3.48,14.55,14.55,0,0,0,1.85-.54c.94-.49,1.35-1.6,2-2.4a3.94,3.94,0,0,1,3-1.31c1.38,0,2.75.75,4.08.4a6.94,6.94,0,0,0,1.36-.62,6.52,6.52,0,0,1,2.66-.87,3.19,3.19,0,0,1,2.57.93c.47.52.73,1.25,1.32,1.63,1.12.71,2.74-.23,3.91.43,1,.57,1.15,2,2.12,2.66.43.27,1,.34,1.4.61a2.66,2.66,0,0,1,1.08,1.94c.11.75.07,1.52.23,2.27.35,1.72,1.39,2.2,2.65,3.13,1,.75,2.63,2.17,1.67,3.55-1.43,2.06-3.43,3.66-1.57,5.2s4.94,2.56,3.58,4.42-3.54,2.61-2.08,4.4,1.68,3.76.06,4.68c0,0,1-1.36-.94-2.63s-2.05-2.58-2.05-2.58a2.81,2.81,0,0,0-.85,2.71,3.11,3.11,0,0,1-.43,2.69s.32.11-1.15-1.5a3,3,0,0,1-.85-3.1s-1.35,3.5-1.79,4.77-7.81,2.91-9.3,2.18-6.83-.09-6.79-2.83a2.19,2.19,0,0,0,0,2.74A2.38,2.38,0,0,1,123,192a9.06,9.06,0,0,0-2.43-3.33s2,2.43.76,3.87a2.16,2.16,0,0,0-.33,2.67s-2-1.45-2-2.57,1.44-2.39-1.47-3.84-1.87-2.46-1.87-2.46a3.58,3.58,0,0,0,0,3.78c1.27,1.75-.85,3.86-.85,3.86s1.43-2.21-.14-3.2-2.62-3-1.57-4.33a2.44,2.44,0,0,0-1.41,2.61c.1,2.11-1.1,2.6-1.1,2.6s.77-1.93-.11-2.55-1.07-3.11-.18-4.21,1.68-3.41.34-4.92-1.68-2.73-.18-4,1.68-4.05,1.2-5.7c-.34-1.13,1.43-1.82,2.12-2.36A2.59,2.59,0,0,0,114.74,166Z" style="fill:#263238"></path><path d="M155.59,230.63l-4.44,6.43a5.2,5.2,0,0,0-.7,3.17c.1,2.07,2.26,8.9,2.81,9s4.11-1.78,4.71-2.27-2.28-6.82-2.47-7a4.5,4.5,0,0,1-.5-1l4.14-5.2Z" style="fill:#eec1bb"></path><path d="M151.15,195.24c4.54,1.57,14.93,18.57,15.92,24.46s-10.78,19.24-10.78,19.24l-4.23-4.07s8.09-12.81,8.19-14.13-8.12-14-8.12-14Z" style="fill:#895824"></path><path d="M167.13,220.49a13.06,13.06,0,0,1-1.58,5.24c-.32.64-.66,1.29-1,1.94-.83,1.45-1.79,2.91-2.74,4.27-.42.6-.84,1.17-1.25,1.72-1.21,1.63-2.34,3-3.13,4s-1.1,1.3-1.1,1.3l-4.23-4.07.54-.87c.44-.69,1.1-1.75,1.86-3,.33-.55.69-1.12,1-1.72.61-1,1.25-2.06,1.85-3.07.36-.61.71-1.2,1-1.76.41-.72.78-1.39,1.08-1.95a7.64,7.64,0,0,0,.79-1.79.88.88,0,0,0-.07-.34A16.18,16.18,0,0,0,159,218c-.3-.54-.64-1.14-1-1.76-.68-1.15-1.43-2.4-2.17-3.6l-.24-.38c-.29-.47-.57-.93-.85-1.37-1.45-2.31-2.61-4.1-2.61-4.1l0-.4-.24-2.71-.22-2.6-.49-5.79a12.24,12.24,0,0,1,4.17,3.55c.44.51.89,1.07,1.35,1.65,1,1.27,2,2.7,3,4.19.41.62.81,1.25,1.2,1.88.88,1.41,1.72,2.85,2.48,4.26.36.66.71,1.31,1,1.95a37,37,0,0,1,2.43,5.74,11.31,11.31,0,0,1,.29,1.24A5,5,0,0,1,167.13,220.49Z" style="fill:#fff;opacity:0.7000000000000001;isolation:isolate"></path><path d="M155.59,212.21c-.29-.47-.57-.93-.85-1.37-1.45-2.31-2.61-4.1-2.61-4.1l0-.4-.24-2.71-.22-2.6C153.57,202.27,157.05,205.5,155.59,212.21Z" style="opacity:0.2;isolation:isolate"></path><path d="M115.17,211.64c1.21,3.86,2.15,7.2,2.89,10.19a111.69,111.69,0,0,1,3.33,23l31.26-2.7c1.25-22,.69-34.12.12-40.17-.63-6.45-1.62-6.69-1.62-6.69s-7-.68-13.07-.63a98.61,98.61,0,0,0-14,1.48,92.16,92.16,0,0,0-10,2.23,3,3,0,0,0-2,3.79l1,2.87C113.82,207.36,114.53,209.57,115.17,211.64Z" style="fill:#895824"></path><path d="M152.65,242.1l-31.26,2.69c-.17-2.69-.35-5.16-.6-7.62a99.61,99.61,0,0,0-2.73-15.33l-.66-2.58h0c-.61-2.31-1.35-4.83-2.22-7.62l-.81-2.59c-.34-1.06-.7-2.16-1.07-3.3-.09-.25-.17-.51-.26-.77l-1-2.87a3,3,0,0,1,2-3.8c2.64-.75,5.31-1.37,8-1.88l2-.35.37-.06a94.64,94.64,0,0,1,9.8-1.2c.72,0,1.43-.1,2.15-.13.57,0,1.14-.06,1.71-.08h2c5.51.08,11.05.62,11.05.62s1,.24,1.62,6.69C153.34,208,153.9,220.08,152.65,242.1Z" style="fill:#fff;opacity:0.7000000000000001;isolation:isolate"></path><path d="M131.07,224.12a.46.46,0,0,1-.23-.05.5.5,0,0,1-.21-.68l8-15a.5.5,0,0,1,.6-.24.51.51,0,0,1,.34.55,111.22,111.22,0,0,0-1.49,12.81,6.57,6.57,0,0,0,.81-1.44.5.5,0,0,1,.65-.27.49.49,0,0,1,.27.65c-.33.8-1,2.14-1.77,2.23a.81.81,0,0,1-.76-.36c-.48-.67.12-5.8.86-10.88l-6.6,12.42A.49.49,0,0,1,131.07,224.12Z" style="fill:#895824"></path><path d="M143.08,221.65a1.92,1.92,0,0,1-.88-.24,2.46,2.46,0,0,1-1.19-1.95,4.87,4.87,0,0,1,1.06-3.55l.09-.11c-3.57.45-7,1.19-10.1,1.88a.5.5,0,0,1-.6-.38.5.5,0,0,1,.38-.59,93.73,93.73,0,0,1,12.81-2.18h0a.51.51,0,0,1,.54.46.5.5,0,0,1-.46.54h0a2.67,2.67,0,0,0-1.89,1,3.86,3.86,0,0,0-.84,2.81,1.55,1.55,0,0,0,.67,1.17.66.66,0,0,0,.64.06c.88-.42,1.35-2.92,1.55-4,0-.24.08-.44.12-.59a.5.5,0,0,1,.54-.39.52.52,0,0,1,.45.5c0,1.66.24,3.69.64,4.08a3.88,3.88,0,0,0,.65-1.36.5.5,0,0,1,.62-.34.49.49,0,0,1,.34.62c-.16.55-.63,1.87-1.42,2.07a.9.9,0,0,1-.9-.28,3.36,3.36,0,0,1-.66-1.6,3.52,3.52,0,0,1-1.5,2.18A1.4,1.4,0,0,1,143.08,221.65Z" style="fill:#895824"></path><path d="M134.3,201.28c-7.29-.94-9.49-4.05-9.49-4.05,4.63-4.37.79-11.94.79-11.94l8.78,1.64a25.31,25.31,0,0,0-.34,3.7C134,196,136.38,196,136.38,196,137.92,198.9,134.3,201.28,134.3,201.28Z" style="fill:#eec1bb"></path><path d="M134.38,186.93a25.31,25.31,0,0,0-.34,3.7c-5.94,0-8.44-5.34-8.44-5.34Z" style="opacity:0.2;isolation:isolate"></path><path d="M125.31,192.2s8.26,2.15,13.29,0c0,0,.74,5,2.57,6.27,0,0-3.63,4.22-7.43,4.62s-10.45-4.75-10.45-4.75S125.29,195,125.31,192.2Z" style="fill:#895824"></path><path d="M141.17,198.47a15.76,15.76,0,0,1-1.13,1.15c-1.36,1.28-3.79,3.21-6.3,3.47-1.89.19-4.49-1-6.62-2.22h0a38.17,38.17,0,0,1-3.82-2.53,18.1,18.1,0,0,0,1.13-2.32,11,11,0,0,0,.89-3.82,32.55,32.55,0,0,0,9.24.9,13,13,0,0,0,4-.9,20.58,20.58,0,0,0,.53,2.41,13,13,0,0,0,1,2.5A4,4,0,0,0,141.17,198.47Z" style="fill:#fff;opacity:0.7000000000000001;isolation:isolate"></path><path d="M140.44,199.51a5.44,5.44,0,0,0,.73-1S140.9,198.9,140.44,199.51Z" style="opacity:0.2;isolation:isolate"></path><path d="M140.44,199.51,140,200c-.3,7.94-1.58,19.26-6.29,22.76-4.15,3.08-11-.08-16.34-3.53h0c-.61-2.31-1.35-4.83-2.22-7.62l-.81-2.59c-.34-1.06-.7-2.16-1.07-3.3l1.74-3.87s6.46,2.39,15,5.24c0,0,.7-1.43,1.58-3.67a16.3,16.3,0,0,1-4.46-2.58h0a20.07,20.07,0,0,0,4.94,1.3,54.11,54.11,0,0,0,2.16-7.35c.13-.57.24-1.14.33-1.72a13,13,0,0,0,4-.9,20.58,20.58,0,0,0,.53,2.41h1c0,.72,0,1.56,0,2.49,0,.78,0,1.62-.05,2.51,0,.1,0,.21,0,.31C140.18,199.79,140.32,199.64,140.44,199.51Z" style="opacity:0.2;isolation:isolate"></path><path d="M121.4,243.51s-11.5,26.87-.75,65.82l20.94-2.39V286.86l4.53,19.35,21-4.22C160.67,270.38,154.85,256,154.85,256l-1.56-15.91Z" style="fill:#895824"></path><polygon points="131.13 249.34 147.67 247.88 147.67 242.52 131.13 243.95 131.13 249.34" style="fill:#263238"></polygon><polygon points="129.68 244.07 121.39 244.79 120.65 250.27 129.68 249.47 129.68 244.07" style="fill:#263238"></polygon><polygon points="148.93 242.41 148.93 247.77 152.65 247.44 152.65 242.09 148.93 242.41" style="fill:#263238"></polygon><path d="M143.3,243a1.92,1.92,0,0,0-1.48-.51l-3.9.34a1.93,1.93,0,0,0-1.77,1.93v2.5a1.92,1.92,0,0,0,1.94,1.93h.17l3.9-.35a1.93,1.93,0,0,0,1.77-1.93v-2.48A1.92,1.92,0,0,0,143.3,243Zm-1.23,4.85-3.9.34a.93.93,0,0,1-1-.93v-2.5a.92.92,0,0,1,.85-.93l3.91-.34H142a.91.91,0,0,1,.63.25.93.93,0,0,1,.31.7v.37l-.15,0-1.1.09a.66.66,0,1,0,.1,1.32l1.1-.08.05,0v.82A1,1,0,0,1,142.07,247.88Z" style="fill:#fff"></path><path d="M130.28,408.52c0-.67,8.23-.14,8.23-.14s5.06,5.14,10,6.29,2.16,4.1-3.33,4.1H131.58C127.68,418.77,130.12,415.45,130.28,408.52Z" style="fill:#263238"></path><path d="M142.83,410.48a10.38,10.38,0,0,1-3.4-1l-.08-.06h0a.08.08,0,0,1,0,0,.2.2,0,0,1,0-.17c0-.08.72-2,1.83-2.46a1.27,1.27,0,0,1,1.06,0c.38.18.56.41.54.7s-.61.86-1.27,1.22a3.35,3.35,0,0,1,1.84.2.88.88,0,0,1,.44.56.79.79,0,0,1-.2.87A1.15,1.15,0,0,1,142.83,410.48Zm-2.65-1.18c1.21.51,2.72,1,3.1.65,0,0,.14-.12.06-.44a.48.48,0,0,0-.24-.29A5.32,5.32,0,0,0,140.18,409.3Zm1.47-2.26a.78.78,0,0,0-.33.07,3.56,3.56,0,0,0-1.41,1.76c1.21-.46,2.39-1.1,2.41-1.47,0-.11-.18-.22-.29-.27A.88.88,0,0,0,141.65,407Z" style="fill:#895824"></path><path d="M176.28,408.52c0-.67,8.23-.14,8.23-.14s5.06,5.14,10,6.29,2.16,4.1-3.33,4.1H177.58C173.68,418.77,176.12,415.45,176.28,408.52Z" style="fill:#263238"></path><path d="M188.83,410.48a10.38,10.38,0,0,1-3.4-1l-.08-.06h0a.08.08,0,0,1,0,0,.2.2,0,0,1,0-.17c0-.08.72-2,1.83-2.46a1.27,1.27,0,0,1,1.06,0c.38.18.56.41.54.7s-.61.86-1.27,1.22a3.35,3.35,0,0,1,1.84.2.88.88,0,0,1,.44.56.79.79,0,0,1-.2.87A1.15,1.15,0,0,1,188.83,410.48Zm-2.65-1.18c1.21.51,2.72,1,3.1.65,0,0,.14-.12.06-.44a.48.48,0,0,0-.24-.29A5.32,5.32,0,0,0,186.18,409.3Zm1.47-2.26a.78.78,0,0,0-.33.07,3.56,3.56,0,0,0-1.41,1.76c1.21-.46,2.39-1.1,2.41-1.47,0-.11-.18-.22-.29-.27A.88.88,0,0,0,187.65,407Z" style="fill:#895824"></path><path d="M140.66,183.44c-.07.26-.14.51-.22.75-1,3.1-3.2,5-7,5.09a12.11,12.11,0,0,1-1.68-.06l-1.11-.15c-13.12-2.14-13.76-26-1.08-26.69,7.63-.42,10.31,3.54,11.3,11.37A27,27,0,0,1,140.66,183.44Z" style="fill:#eec1bb"></path><path d="M135.87,173.59a16.2,16.2,0,0,0,2.4,3,2.11,2.11,0,0,1-2,1Z" style="fill:#d4827d"></path><path d="M131.16,173.22c.05.63-.25,1.16-.66,1.2s-.8-.45-.85-1.08.25-1.16.67-1.19S131.12,172.6,131.16,173.22Z" style="fill:#263238"></path><path d="M130.15,172.19l1.32-.64S130.88,172.75,130.15,172.19Z" style="fill:#263238"></path><path d="M138.94,172.48c.05.63-.25,1.16-.67,1.2s-.79-.45-.84-1.08.25-1.16.66-1.19S138.89,171.86,138.94,172.48Z" style="fill:#263238"></path><path d="M137.92,171.45l1.32-.64S138.65,172,137.92,171.45Z" style="fill:#263238"></path><path d="M127.55,169.65a.33.33,0,0,1-.21-.07.35.35,0,0,1-.08-.5,4.29,4.29,0,0,1,3.57-1.48.35.35,0,0,1,.33.38.36.36,0,0,1-.39.34,3.65,3.65,0,0,0-2.93,1.18A.35.35,0,0,1,127.55,169.65Z" style="fill:#263238"></path><path d="M139.41,168.15a.32.32,0,0,1-.19-.05,3.21,3.21,0,0,0-2.75-.44.36.36,0,1,1-.28-.66,3.86,3.86,0,0,1,3.4.48.36.36,0,0,1-.18.67Z" style="fill:#263238"></path><path d="M121.89,175.7s3.22-6.47,2.42-11.28c0,0,14.78-7,16.37,8.31,0,0,.73-13.72-12.41-13.3s-12,19.61-4.94,24.95C123.33,184.38,119.89,179.74,121.89,175.7Z" style="fill:#263238"></path><path d="M123.22,177.24a3.36,3.36,0,0,0-3.77-2.86c-2.35.39-3.21,5.31,2.73,6.15C123,180.65,123.47,179.8,123.22,177.24Z" style="fill:#eec1bb"></path><path d="M135.87,181.89h0a4.18,4.18,0,0,1-3.86-2.82.26.26,0,0,1,.19-.31.26.26,0,0,1,.3.18,3.6,3.6,0,0,0,3.41,2.45.26.26,0,0,1,.23.27A.25.25,0,0,1,135.87,181.89Z" style="fill:#263238"></path><path d="M140.44,184.19c-1,3.1-3.2,5-7,5.09C135,186.59,138.54,184.79,140.44,184.19Z" style="opacity:0.1;isolation:isolate"></path><path d="M131.68,177.32a3.38,3.38,0,1,1,3.38-3.38A3.38,3.38,0,0,1,131.68,177.32Zm0-6.26a2.88,2.88,0,1,0,2.88,2.88A2.88,2.88,0,0,0,131.68,171.06Z" style="fill:#263238"></path><path d="M139.89,176.07a3.38,3.38,0,1,1,3.38-3.38A3.39,3.39,0,0,1,139.89,176.07Zm0-6.26a2.88,2.88,0,1,0,2.88,2.88A2.88,2.88,0,0,0,139.89,169.81Z" style="fill:#263238"></path><path d="M134.74,173.53a.27.27,0,0,1-.17-.06.25.25,0,0,1,0-.36,2.28,2.28,0,0,1,1.51-.76,1.22,1.22,0,0,1,.91.51.25.25,0,0,1-.4.3.7.7,0,0,0-.53-.31,1.87,1.87,0,0,0-1.13.6A.21.21,0,0,1,134.74,173.53Z" style="fill:#263238"></path><path d="M121.67,174.67a.25.25,0,0,1-.25-.23.26.26,0,0,1,.23-.27l6.88-.48a.26.26,0,0,1,.27.24.25.25,0,0,1-.23.26l-6.88.48Z" style="fill:#263238"></path><path d="M126.7,158.38s5.46-.27,9.63,2,4.36,5.73,4.36,5.73l-1.45-.54-2.91-2.33a4.85,4.85,0,0,1,.59,2.37s-.91-1.93-2.18-2.25a2.62,2.62,0,0,1-.69,2.75,4.43,4.43,0,0,0-1.68-2.47s.22,1.08-2,2.47a3.14,3.14,0,0,0-1.23-2.67s-1.05,2-2.48,2.27c0,0,1.06-1,.85-1.58a8,8,0,0,1-4.26,2C120.91,166.3,117.74,161.25,126.7,158.38Z" style="fill:#263238"></path><path d="M133.74,198.13l1.13-5.87s-.76,0-.56-1.63,4.17-5.74,5.86-6.25,3.15,5.87,3.28,6.25-3.77,3.8-4.85,3.41l-1,5.17Z" style="fill:#eec1bb"></path><path d="M111.79,199.87c-3.47,8.41,16.2,19.4,20.87,19.82s6.58-24.2,6.58-24.2l-5.19-.89s-2,17.87-3.9,16.8S114.33,193.71,111.79,199.87Z" style="fill:#895824"></path><path d="M139.24,195.49s-.05.63-.15,1.7c-.06.56-.12,1.25-.21,2-.17,1.54-.39,3.43-.69,5.43-.1.69-.2,1.39-.32,2.09-.37,2.25-.81,4.54-1.34,6.56-.21.79-.43,1.53-.67,2.21-.87,2.58-1.93,4.3-3.2,4.19a7.32,7.32,0,0,1-1.43-.31,20.17,20.17,0,0,1-2.1-.77A44.9,44.9,0,0,1,123.9,216c-.58-.35-1.17-.71-1.76-1.09a44.62,44.62,0,0,1-3.92-2.82c-.56-.45-1.09-.91-1.61-1.37a24.19,24.19,0,0,1-3.28-3.62,12.52,12.52,0,0,1-1.18-2,6.23,6.23,0,0,1-.36-5.18c.73-1.78,2.41-1.66,4.47-.57a18.19,18.19,0,0,1,1.73,1.07,36.6,36.6,0,0,1,2.9,2.29c.51.43,1,.89,1.52,1.35,1.13,1,2.23,2.1,3.23,3.1.52.51,1,1,1.47,1.46.85.85,1.58,1.57,2.13,2.08a6.19,6.19,0,0,0,.91.74c.66.36,1.33-1.47,1.91-4.05.26-1.08.49-2.3.71-3.54l.36-2.2c.23-1.51.43-3,.58-4.15.12-.86.2-1.59.27-2.09l.08-.76Z" style="fill:#fff;opacity:0.7000000000000001;isolation:isolate"></path><path d="M141.59,286.86c3.58-7.4,6.08-13.49,6.08-13.49s.79,18.73-1.55,32.84Z" style="opacity:0.2;isolation:isolate"></path></g></svg>